<?xml version="1.0" encoding="utf-8"?>

<!DOCTYPE svg PUBLIC "-//W3C//DTD SVG 1.1//EN" "http://www.w3.org/Graphics/SVG/1.1/DTD/svg11.dtd">
<svg version="1.1" id="Layer_1" xmlns="http://www.w3.org/2000/svg" xmlns:xlink="http://www.w3.org/1999/xlink" x="0px" y="0px"
     viewBox="200 0 2058 650.989" enable-background="new 0 0 2658 712.989" xml:space="preserve">
<path fill="#303F9F" d="M1488.559,56.009c0.649,0,1.936,0,2.574-0.01c0.02,75.685,0.02,151.37,0,227.045c-0.243,1.318,0.436,3.152,2.078,2.99
	c7.418,0.142,14.847-0.03,22.276-0.051c0.041,9.861-0.122,19.722,0.061,29.573c-0.142,4.135,3.243,6.912,6.01,9.445
	c-0.01,14.401,0.01,28.792-0.01,43.194c0.03,3.405-0.497,7.023,1.297,10.124c10.033-0.071,20.077-0.01,30.13-0.03
	c0.091-22.144-0.172-44.308,0.122-66.432c0.324-0.345,0.993-1.013,1.318-1.348c3.557-0.345,7.145-0.041,10.722-0.122
	c0.071-3.567-0.233-7.155,0.122-10.712c0.334-0.334,1.003-0.993,1.338-1.328c6.294,0.112,12.871-1.034,18.992,0.78
	c0.486-0.274,1.449-0.841,1.925-1.115c-0.172-4.996-0.061-9.993-0.071-14.979c4.915-0.132,9.851,0.233,14.766-0.122
	c2.888-2.321,0.882-6.79,1.429-10.023c6.922,0.274,14.036-0.557,20.867,0.395c7.307,6.658,13.955,14.057,21.141,20.877
	c3.223,0.091,6.466,0.03,9.709-0.274c-0.041,28.134-0.03,56.267-0.02,84.401c8.32,0,16.641,0,24.962,0
	c0.334-0.669,1.003-1.997,1.338-2.665c0.132-22.073-0.02-44.146,0.081-66.219c4.034,0.01,8.087,0.02,12.141-0.02
	c0.446-2.919-1.358-7.013,1.439-9.01c6.618-0.345,13.256,0.01,19.894-0.142c0.426,3.425-1.034,7.358,0.618,10.469
	c3.081,1.591,7.033,0.324,10.469,0.689c0.03,12.283-0.071,24.576,0.051,36.86c1.622-0.709,3.162-1.672,4.256-3.111
	c2.493-3.395,6.081-5.726,8.868-8.858c0-12.344-0.01-24.688,0-37.022c-0.243-10.824,0.497-21.698-0.405-32.481
	c7.013,0.203,14.057-0.263,21.07,0.213c3.405,1.226,4.885,5.088,7.682,7.246c0.091,12.395-0.04,24.779,0.061,37.174
	c3.74,2.969,6.861,6.618,10.276,9.942c1.5,1.307,1.915,3.344,1.865,5.26c-0.02,17.229-0.01,34.448-0.01,51.676
	c8.442,0,16.884,0,25.336,0c0.01-42.565-0.01-85.131,0.01-127.696c10.469,0,20.938,0,31.407,0.01
	c0.081,18.445-0.172,36.91,0.122,55.355c0.304,0.314,0.932,0.953,1.246,1.267c4.591,0.355,9.212,0,13.834,0.122
	c0.02,8.574-0.061,17.148,0.041,25.722c0.334,0.628,1.003,1.865,1.348,2.493c3.486,1.713,4.986,5.584,8.26,7.581
	c1.196,1.672,2.574,3.223,4.003,4.723c3.719,0.03,7.449,0.041,11.178,0.01c2.828-2.878,5.645-5.777,8.614-8.523
	c0-9.993-0.02-19.985,0.01-29.978c9.07-0.01,18.141,0,27.222,0c0.02,6.618-0.142,13.236,0.091,19.854
	c3.446,3.142,6.628,6.557,9.952,9.831c2.057,2.098,4.5,3.952,5.736,6.719c0.638,0.061,1.905,0.193,2.544,0.253
	c0.182,4.53-0.203,9.091,0.172,13.621c0.324,0.324,0.973,0.963,1.297,1.287c11.726,0.314,23.482,0.03,35.218,0.111
	c0.071-15.384-0.081-30.789,0.02-46.173c0.314-0.334,0.953-1.003,1.277-1.338c9.293-0.304,18.617,0,27.941-0.111
	c0.01-11.148-0.01-22.296,0-33.444c13.175,0,26.35,0,39.525,0c0,17.908-0.02,35.806-0.01,53.713c7.429,0.01,14.857,0.01,22.306,0
	c0-5.27-0.02-10.54,0.01-15.81c2.179-1.986,4.834-3.598,6.476-6.121c0.659-0.892,1.135-2.361,2.544-2.26
	c7.287-0.355,14.614-0.01,21.921-0.132c3-3.051,6.121-5.99,9.05-9.111c7.611-0.02,15.212-0.01,22.833-0.01
	c0,17.908-0.01,35.806,0,53.713c7.429,0,14.857,0,22.296,0c0.081-15.83-0.162-31.66,0.112-47.47
	c0.304-0.203,0.932-0.608,1.237-0.811c5.969-0.486,11.979,0.578,17.938-0.253c0.041-4.094-0.567-8.341,0.852-12.293
	c7.438,0.162,14.888-0.061,22.346,0.081c1.449-0.051,2.311,1.591,2.118,2.909c-0.02,19.276-0.031,38.562-0.01,57.838
	c6.74-0.02,13.479,0.02,20.219,0.02c1.297,0.203,3.233-0.385,3.061-2.057c0.203-8.422-0.193-16.854,0.132-25.255
	c1.034-4.034,4.682-6.456,6.962-9.729c0.071-20.087,0-40.174,0.031-60.26c8.777-0.02,17.563-0.01,26.35-0.01
	c-0.031,18.273,0.061,36.535-0.051,54.798c7.216,1.145,14.604-0.375,21.881,0.517c4.398,1.763,7.115,5.959,10.601,8.989
	c0,15.729-0.01,31.448,0,47.177c4.723,0.01,9.446,0.01,14.188,0c0.02-30.404-0.031-60.797,0.02-91.191
	c10.813,0,21.637-0.071,32.461,0.01c1.642-0.233,1.996,1.794,1.885,3.01c-0.01,15.202-0.142,30.404,0.061,45.606
	c6.081,0.02,12.172-0.01,18.263,0.01c0.02,17.563,0,35.127,0.01,52.69c16.216,0.041,32.441-0.081,48.656,0.061
	c1.145-3.973,0.527-8.148,0.791-12.212c0.456-19.925,0.274-39.87-0.385-59.784c-0.314-25.276-0.334-50.562-0.192-75.837
	c4.642-0.243,9.293-0.162,13.966-0.172c-0.02-3.385-0.01-6.76,0.02-10.145c4.702,0.03,9.425,0.051,14.158-0.01
	c-0.01,2.696-0.01,5.402,0.01,8.108c3.02,0,6.06,0,9.121,0c0,25.337-0.01,50.673,0,76.01c8.108,0,16.205,0,24.323,0
	c0-6.942-0.01-13.884,0-20.827c2.878-2.817,5.736-5.665,8.553-8.564c6.263,0,12.527-0.01,18.81,0
	c0.041,27.495-0.071,54.98,0.051,82.465c0.334,0.669,1.003,1.997,1.338,2.665c2.473-0.345,6.01,1.135,7.611-1.449
	c0.466-4.591-0.253-9.212,0.253-13.803c2.899-4.145,7.074-7.267,10.428-11.057c3.557-0.051,7.135-0.061,10.722-0.041
	c0.021-23.32,0-46.65,0-69.969c-0.253-2.473,1.115-4.713,2.99-6.223c3.355-3.02,6.132-6.679,9.82-9.334
	c1.135-1.5,1.997-4.013,4.358-3.628c6.426-0.122,12.871,0.02,19.317-0.03c0.041,43.711-0.081,87.421,0.051,131.121
	c0.334,0.659,1.003,1.986,1.338,2.655c10.003,0,20.016,0,30.029,0c0-22.975-0.01-45.94,0-68.915c9.456-0.01,18.911,0,28.377,0
	v347.617H49V378.289c3.04,0,6.081,0,9.121,0c0.051-26.33-0.071-52.659,0.051-78.989c3.02-0.061,6.03-0.071,9.05-0.071
	c0.02-1.814,0.041-3.628,0.071-5.432c0.334-0.669,1.003-1.997,1.338-2.665c5.28,0,10.55,0,15.83,0.01
	c0.03,25.337,0,50.663,0.01,75.999c0.02,3.73-0.385,7.56,0.811,11.178c4.307-0.172,8.635,0.213,12.942-0.152
	c0.334-0.334,0.993-1.003,1.328-1.338c0.294-22.468,0.03-44.967,0.122-67.456c7.094-0.01,14.188,0.01,21.283,0
	c0.01-22.975-0.01-45.95,0-68.925c3.233-0.041,6.466,0.213,9.689-0.101c2.919-2.29,0.902-6.8,1.449-10.023
	c7.733,0.041,15.465-0.111,23.188,0.091c0.071,3.01,0.081,6.01,0.061,9.02c2.382,0,4.773,0.01,7.165,0.02
	c-0.01,34.458,0.041,68.925-0.03,103.383c0,1.844,0.274,3.689,0.588,5.513c11.969-0.294,23.948,0.193,35.917-0.243
	c0.142,9.567-0.193,19.154,0.132,28.711c0.324,0.345,0.993,1.013,1.328,1.348c8.625,0.314,17.279,0.02,25.914,0.122
	c0.152-24.82-0.274-49.66,0.213-74.469c1.611-0.081,3.233-0.162,4.854-0.243c0.061-3.334-0.213-6.679,0.122-9.993
	c2.199-2.838,6.506-0.943,9.628-1.429c0.436-3.709,0.416-7.439,0.314-11.158c7.033-0.02,14.057,0.041,21.08-0.03
	c2.067,3.74,1.115,8.108,1.277,12.182c2.027,0.01,4.054,0.02,6.081,0.03c0.02,28.367,0,56.733,0.01,85.11
	c15.202,0,30.404,0,45.606,0c0-4.064,0-8.118,0-12.162c3.557-0.628,8.412,1.551,11.026-1.449c0.203-23.826,0.213-47.693-0.01-71.52
	c7.621,0,15.242,0,22.854,0c4.52-2.321,7.55-6.567,11.097-10.054c7.642-0.172,15.283-0.051,22.935-0.071
	c0.061,14.492-0.122,28.995,0.091,43.498c6.04,0.142,12.091,0.051,18.141,0.061c0.02-12.83,0-25.661,0.01-38.501
	c5.402-0.01,10.803,0.01,16.215,0c0-2.716,0-5.432,0-8.138c8.736-0.943,17.614-0.709,26.37-0.142
	c0.071,3.953-0.263,7.935,0.101,11.888c2.544,3.01,7.398,0.79,10.905,1.551c0.182,5.371,0.091,10.743,0.111,16.114
	c3.719,0,7.439,0.01,11.158,0.01c0.01,13.175-0.01,26.36,0,39.535c2.888,0.01,5.797-0.203,8.675,0.111
	c2.007,0.861,1.459,3.223,1.429,4.946c-0.973,8.087,0.456,16.205,0.03,24.323c7.621-0.111,15.263,0.203,22.884-0.122
	c1.956-0.882,1.358-3.213,1.48-4.895c-0.223-4.429,0.497-8.939-0.689-13.266c3.922,0.071,7.854,0.041,11.797,0.041
	c0-53.734,0.03-107.467-0.02-161.201c3.375-0.537,6.8-0.466,10.185-0.861c0.051-3.942-0.274-7.895,0.091-11.817
	c0.659-1.632,2.463-1.5,3.902-1.49c13.854,0.081,27.718,0.01,41.582,0.051c0,54.048-0.01,108.096,0,162.143
	c11.482,0,22.965,0,34.458,0c0-10.814,0.02-21.627-0.03-32.431c-0.122-1.723,0.385-3.344,1.034-4.905
	c7.773,0.324,15.557,0.324,23.32-0.03c-0.02-22.691,0.02-45.383-0.02-68.064c0.091-2.574-0.476-5.331,0.821-7.702
	c0.071-0.466,0.233-1.409,0.304-1.885c2.3-3.365,5.868-5.513,8.462-8.625c10.124,0.03,20.259-0.061,30.384,0.051
	c1.054,0.831,2.138,1.642,3.223,2.453c1.763,2.392,3.821,4.55,5.959,6.618c4.226,0.01,8.452,0,12.678,0
	c0.02,18.921,0,37.832,0.01,56.754c2.098,0,4.206,0,6.324-0.01c0.497,1.986,0.851,4.023,0.811,6.091
	c-0.081,10.469-0.03,20.938-0.041,31.417c6.101-0.02,12.202,0.02,18.313,0.02c1.753,0.071,3.415-0.537,5.037-1.155
	c-0.101-67.203,0.01-134.405-0.061-201.608c-0.436-3.081,2.584-4.814,4.368-6.79c11.878-11.776,23.604-23.685,35.491-35.451
	c1.034-1.307,2.757-1.236,4.277-1.419c0.162,7.53,0.902,15.131-0.213,22.6c0.223,0.466,0.679,1.399,0.902,1.865
	c10.398-0.02,20.796-0.01,31.204-0.01c0,44.278,0.01,88.546-0.01,132.824c-0.223,1.307,0.618,2.98,2.118,2.939
	c5.371,0.172,10.753-0.03,16.134,0.041c0.041-15.242-0.071-30.475,0.041-45.717c-0.152-3.01,2.615-4.682,4.55-6.466
	c2.371-2.503,4.773-4.976,6.983-7.621c12.354,0.03,24.718,0,37.072,0.01c0,49.66-0.01,99.319,0,148.979
	c7.449,0.02,14.898-0.01,22.357,0c-0.03,15.719-0.213,31.458,0.061,47.166c0.324,0.345,0.983,1.024,1.318,1.358
	c10.651,0.304,21.333,0.03,32.005,0.122c0.01-8.108-0.01-16.215,0.01-24.313c3.912-0.02,7.824,0.02,11.746-0.041
	c0.872-1.966,2.878-3.02,3.841-4.905c0.314-0.061,0.932-0.193,1.247-0.264c0.649-1.287,1.307-2.797,3.071-2.746
	c5.169-0.426,10.368-0.03,15.557-0.162c-0.01-22.61,0.02-45.221-0.01-67.831c0.111-2.615-0.568-5.463,0.882-7.824
	c0.071-1.338,0.132-2.676,0.213-4.003c1.419-0.628,2.371-1.895,3.547-2.868c1.186-1.5,2.544-2.858,4.064-4.044
	c1.439-1.926,3.456-3.304,4.915-5.219c1.054-0.953,2.098-1.936,3.162-2.909c1.084-1.297,2.351-2.432,3.669-3.517
	c12.283-0.071,24.597-0.193,36.87,0.02c0.345,0.334,1.013,1.003,1.348,1.338c0.466,4.084-0.233,8.209,0.243,12.293
	c0.334,0.334,1.003,1.003,1.338,1.338c8.959,0.324,17.938,0.01,26.918,0.122c0.02,37.599-0.031,75.199,0.02,112.798
	c1.409-0.203,3.111-0.132,3.375-1.915c1.601-1.105,2.98-2.483,4.145-4.034c2.665-2.067,4.915-4.54,7.216-6.983
	c1.226-1.459,2.564-2.817,4.054-4.023c1.105-1.601,3.405-2.493,3.375-4.702c0.294-8.077,0.01-16.165,0.111-24.242
	c3.73-0.01,7.469-0.041,11.209,0.03c0.213-1.358,0.426-2.736,0.466-4.115c-0.162-9.78,1.084-19.55,0.253-29.309
	c-0.689-7.064,0.041-14.168-0.486-21.232c0.213-0.557,0.638-1.662,0.861-2.219c2.98,0.101,5.979,0.091,8.979,0.081
	c-0.02-3.334,0-6.658,0.02-9.983c7.418-0.193,14.837-0.142,22.256-0.051c0.01,3.344,0.02,6.689,0.02,10.033
	c4.591,0.051,9.192,0.051,13.783,0c0.345,0.669,1.024,1.997,1.368,2.665c0.061,3.344,0.061,6.689,0.031,10.043
	c1.236,1.307,2.402,2.686,3.496,4.125c3.699,2.453,5.594,6.932,9.668,8.837c2.777,5.746-0.76,12.719,2.27,18.394
	c5.888,6.517,12.486,12.405,18.526,18.779c5.868,0.851,11.807,0.152,17.715,0.324c5.077-0.081,10.165,0.294,15.242-0.172
	c-0.02-6.476-0.01-12.942-0.01-19.418c3.395,0,6.79-0.01,10.196,0c0.04-2.594-0.335-5.159-0.578-7.733
	c1.176-1.875,3.8-0.811,5.635-1.084c4.034,0.446,8.361-0.953,12.192,0.78c-0.172,9.091-0.051,18.192-0.081,27.292
	c7.429,0,14.857,0,22.296,0c0.01-19.59-0.02-39.18,0.01-58.771c3.365-0.01,6.74-0.01,10.125-0.01c-0.01-3.719,0-7.429,0.01-11.138
	c7.418-0.02,14.847-0.01,22.286-0.01c-0.01,3.719,0,7.429,0,11.148c3.03,0,6.06,0,9.101,0.02c0.02,33.231,0.061,66.473-0.02,99.704
	c4.824-4.784,9.79-9.445,14.442-14.401c2.361-2.919,5.098-5.594,8.493-7.287c3.344-0.598,8.016,1.51,10.429-1.439
	c0.365-5.898-0.061-11.827,0.192-17.736c4.024-0.051,8.047-0.061,12.081-0.071c0.02-29.39,0-58.781,0.01-88.181
	c2.554-0.416,6.091,1.095,7.996-1.074c0.334-5.402,0-10.814,0.081-16.215c0.02-1.378-0.274-3.253,1.409-3.821
	c1.541-0.274,3.121-0.172,4.713-0.203c0.233-7.277,0.101-14.574,0.152-21.86c0.618-0.345,1.855-1.034,2.483-1.378
	c5.199-0.051,10.408-0.051,15.618-0.071c1.307-0.233,2.949,0.598,2.979,2.088c0.152,6.74-0.041,13.489,0.041,20.229
	c2.017,0.01,4.044,0.01,6.081,0.02c0.01,7.773-0.02,15.546,0.01,23.32c3,0.01,6,0.041,9.02,0.111
	c0.162,6.04,0.051,12.08,0.091,18.121c2.625,0.01,5.26,0.01,7.915-0.01c1.713,4.885,1.145,10.114,1.206,15.192
	c0.01,19.773-0.02,39.545,0.01,59.318c11.888,12.06,23.948,23.948,35.897,35.958c4.236,0,8.483,0,12.739,0
	c0.01-16.874-0.01-33.748,0.01-50.612c0.051-4.611-0.578-9.364,1.166-13.763c1.368-1.885,3.02-3.547,4.905-4.936
	c0.01-67.618,0-135.236,0-202.854C1455.905,88.815,1472.202,72.377,1488.559,56.009z"/>
</svg>
