<?xml version="1.0" encoding="utf-8"?>
<!-- Generator: Adobe Illustrator 18.0.0, SVG Export Plug-In . SVG Version: 6.00 Build 0)  -->
<!DOCTYPE svg PUBLIC "-//W3C//DTD SVG 1.1//EN" "http://www.w3.org/Graphics/SVG/1.1/DTD/svg11.dtd">
<svg version="1.1" id="Слой_2" xmlns="http://www.w3.org/2000/svg" xmlns:xlink="http://www.w3.org/1999/xlink" x="0px" y="0px"
     viewBox="0 336 1590 517.6" enable-background="new 0 336 1590 517.6" xml:space="preserve">
<path fill="#448AFF"    d="M1555.6,812.4v-199h-27.3v-5.6h-7.6V600h-25.4v-3.2
	h-24.1v16.6h-26.4v5.6h-16.2v-14h-34.8v14h-29.9v82h-26.4v42.9h-5.4v-39h-11.7v-4.2h-17.9v-61.2h-4.9v-23.7h-7.2v-13.1h-3.2v-8h-4.2
	v-11.1h-0.3v11.1h-4v8.1h-3.6v13h-11.8v-5.8h-6.1v-13h-15.8v13h-4.5v5.8h-3.4v16.2h-4v7.6h-5.4v18.3h-2.3v-9h-6.8v-4.9h-7.2v-7.2
	h-1.9v7.2h-9v4.9h-6.8v9h-15.2v12.7h-39.8V597h-14.3v-23.7h-2.7V597h-70.6v18.8h-8.9v82.3h-4v7.2h-3.3v12.6h-5.6v-14h-4.5v-18.2
	h-8.5v-6.5h-4.5v6.5h-5.8v-46.1h-26.4v-7.6h-19.7v7.6h-19.7v49.2h-15.6v9.4h-16.6v-7.2h-14.3v7.2h-13.9v-71.9h-17v-6.2h-17v6.1
	h-42.9v80.8h-8.5v-42.4h-28.2v-106h-61.2v81h-21.1V655h-4.9v68.9h-6.6v-9.8h-13.9v9.8h-7.2v-9.8h-28.2v17.6h-14.7v5.6h-4.5v8.5
	h-24.1v-17H572v-12.2h-5.4v-72.7h-49.7V465.8h-10.7v-12.6h-20.8V344.5H482v108.6h-19.2v12.6h-9v213.1h-6.1v6.5h-2v5.4h-3.6v12.1
	h-2.3v23.5h-3.6V752h-2.6v5.4h-19.2v12.1h-14.3v-71.5h-4.5v-14.7h-6.1V679h-30.5v-24h-40.7v-7.6h-44.9v106h-14.6v-24.6h-3.6v-10.3
	h-9.8v-11.7h-29v11.7H187v10.3h-4.9v28.6h-23.3v-11.7h-18.3v-11.1h-29.9v11.1H102v17.9H82.3v5.8h-8.1v-16.2H18.8v59.1H0v41.2h1590
	v-41.2L1555.6,812.4L1555.6,812.4z"/>
</svg>
